@startuml online

class 收入{
  金额
  日期
}

class 预存{
  销售人员
  客户名称
  到账时间
  发票号
}

收入 <|- 预存

class 发票 {
  发票号
  金额
  开票公司
  开票时间
  销售人员
  到账时间
  是否回款结束
}

class 回款 {
  发票号
  时间
  金额
}

预存 "1" -- "1" 发票
发票 "1" -- "*" 回款

class 客户支出{
  金额
  时间
  备注
  是否现金
}

预存 "1" -- "*" 客户支出

class 毛利

class 现金

收入 <|- 毛利
收入 <|- 现金

class 人员
class 销售人员

人员 <|- 销售人员

class 销售支出{
  金额
  时间
  备注
  是否现金
  类型（包括总经办支持）
  销售人员
  编号
}



毛利 "1"--"1" 销售人员
毛利 "1"--"*" 销售支出

@enduml